<?xml version="1.0" encoding="UTF-8" standalone="no"?>
<svg
   xmlns:dc="http://purl.org/dc/elements/1.1/"
   xmlns:cc="http://creativecommons.org/ns#"
   xmlns:rdf="http://www.w3.org/1999/02/22-rdf-syntax-ns#"
   xmlns:svg="http://www.w3.org/2000/svg"
   xmlns="http://www.w3.org/2000/svg"
   xmlns:sodipodi="http://sodipodi.sourceforge.net/DTD/sodipodi-0.dtd"
   xmlns:inkscape="http://www.inkscape.org/namespaces/inkscape"
   version="1.1"
   x="0px"
   y="0px"
   viewBox="0 0 100 100"
   enable-background="new 0 0 100 100"
   xml:space="preserve"
   id="svg2"
   inkscape:version="0.91 r13725"
   sodipodi:docname="icon-user.svg"><metadata
     id="metadata14"><rdf:RDF><cc:Work
         rdf:about=""><dc:format>image/svg+xml</dc:format><dc:type
           rdf:resource="http://purl.org/dc/dcmitype/StillImage" /></cc:Work></rdf:RDF></metadata><defs
     id="defs12" /><sodipodi:namedview
     pagecolor="#ffffff"
     bordercolor="#666666"
     borderopacity="1"
     objecttolerance="10"
     gridtolerance="10"
     guidetolerance="10"
     inkscape:pageopacity="0"
     inkscape:pageshadow="2"
     inkscape:window-width="1366"
     inkscape:window-height="716"
     id="namedview10"
     showgrid="false"
     inkscape:zoom="2.36"
     inkscape:cx="-12.5"
     inkscape:cy="50"
     inkscape:window-x="-8"
     inkscape:window-y="-8"
     inkscape:window-maximized="1"
     inkscape:current-layer="svg2" /><g
     id="g4"
     style="fill:#b1b1b1;fill-opacity:1"><path
       fill="#000000"
       d="M71.268,27.167c0,11.746-9.521,27.958-21.268,27.958S28.731,38.914,28.731,27.167   c0-11.747,9.522-21.269,21.269-21.269S71.268,15.421,71.268,27.167z"
       id="path6"
       style="fill:#b1b1b1;fill-opacity:1" /><path
       fill="#000000"
       stroke="#FFFFFF"
       stroke-miterlimit="10"
       d="M66.079,49.318c-4.292,5.513-9.917,9.41-16.079,9.41   c-6.163,0-11.787-3.897-16.079-9.41C20.2,54.923,10.636,66.595,10.636,74.548c0,10.799,17.624,19.554,39.364,19.554   s39.364-8.754,39.364-19.554C89.364,66.595,79.801,54.922,66.079,49.318z"
       id="path8"
       style="fill:#b1b1b1;fill-opacity:1" /></g></svg>